<svg width="330" height="170" xmlns="http://www.w3.org/2000/svg">

 <g>
  <title>Layer 1</title>
  <path stroke-width="2" d="m28.41963,35.14591c0,-1 -0.63345,2.02248 -1,5c-0.50377,4.09222 -1.0527,9.98719 -2,14c-2.11821,8.97292 -5.12439,21.99028 -6,34c-1.16573,15.98878 -5,26 -5,37c0,8 0,13 0,15c0,2 -2.0741,7.12709 3,10c0.87019,0.49271 2.22836,2.14806 5,1c7.83937,-3.24718 12.22054,-12.83128 16,-18c4.25638,-5.82094 4,-11 4,-16c0,-3 0,-5 0,-8c0,-3 -2.39828,-8.36166 -8,-17c-2.72043,-4.19514 -5,-3.58578 -5,-5c0,-1.41422 4.41208,-0.96855 8,-3c4.92259,-2.78712 11.54901,-8.60642 15,-14c2.41028,-3.76704 2,-10 2,-16c0,-5 1.89737,-9.3079 0,-15c-1.58115,-4.74342 -5,-7 -7,-7c-3,0 -9,0 -10,1l-5,1l-1,1l-1,1" id="svg_6" stroke="#000" fill="none"/>
  <path stroke-width="2" d="m82.41963,139.14591c-1,-2 -1.49829,-2.93796 -2,-9c-0.49487,-5.97955 0,-11 0,-15c0,-7 2.48169,-10.87997 4,-18c2.94943,-13.83116 3.97751,-23.54974 6,-37c1.33826,-8.89995 -0.35706,-21.07095 2,-32c1.73849,-8.06087 2,-13 2,-16c0,-1 1.07611,-1.38268 2,-1c5.22626,2.16479 8.39655,12.51426 13,28c2.90588,9.77526 3.93668,24.03773 5,39c1.00253,14.10655 5.24991,30.40532 10,42c2.75989,6.73669 2,8 3,10l2,2l1,4" id="svg_7" stroke="#000" fill="none"/>
  <path stroke-width="2" d="m85.41963,88.14591c0,0 0.87857,-0.49345 4,-1c0.98709,-0.16019 2.38687,-1.9176 5,-3c0.92389,-0.38269 3.05164,0.64073 7,0c3.12143,-0.50655 5,-3 6,-3c1,0 4,0 6,0c1,0 2,0 3,1l1,1" id="svg_10" stroke="#000" fill="none"/>
  <path stroke-width="2" d="m161.41963,13.14591c1,2 4.95752,7.01086 6,11c2.88284,11.03129 4.03278,27.05212 5,36c3.52039,32.56696 8.99658,50.87593 10,63c1.07224,12.9557 0,25 -1,31l-1,4l-1,2l-1,0" id="svg_11" stroke="#000" fill="none"/>
  <path stroke-width="2" d="m181.41963,94.14591c1,0 1.41885,0.41885 3,2c1.58115,1.58115 1.33749,3.31001 3,6c2.2305,3.60901 7.32144,5.80901 9,9c2.50705,4.76599 3,6 3,7c0,1 0,2 0,3c0,3 0.03412,7.99249 2,17c3.05301,13.98854 5,22 7,25l2,3l0,2l1,0" id="svg_12" stroke="#000" fill="none"/>
  <path stroke-width="2" d="m226.41963,19.14591c0,1 -1.8396,0.91454 -6,5c-6.7312,6.60992 -14.23273,12.73325 -20,18c-2.08856,1.90732 -2.39099,4.76951 -6,7c-2.69,1.66251 -4,3 -6,7c-1,2 -2.31073,5.08025 -3,8c-1.0275,4.3525 -3,7 -3,10c0,2 0.4595,2.0535 0,4c-0.51373,2.17625 -1,6 -1,6c0,2 -1.48627,2.82375 -2,5c-0.22977,0.97325 0,2 0,3l0,0" id="svg_13" stroke="#000" fill="none"/>
  <path stroke-width="2" d="m234.41963,148.14591c1,0 0.63345,-1.02248 1,-4c0.50378,-4.09221 3.15402,-10.65779 5,-19c2.81699,-12.73045 2.68527,-18.91347 5,-40c1.4227,-12.96055 2.99246,-26.81557 4,-35c0.85529,-6.94756 1.67261,-11.70847 4,-18c1.43048,-3.867 3.9176,-7.38687 5,-10c0.76538,-1.84776 1.69345,-4.4588 3,-5c0.92389,-0.38268 1.22055,1.83128 5,7c4.25638,5.82094 8.71243,13.58191 12,20c7.79047,15.20883 10.80945,30.05211 15,45c4.78329,17.06224 6.89163,24.25056 9,31c2.6669,8.53743 7,13 9,16l0,0l0,1" id="svg_14" stroke="#000" fill="none"/>
  <path stroke-width="2" d="m298.41963,86.14591c-2,0 -4,0 -5,0c-6,0 -7,0 -12,0c-2,0 -5,-1 -8,-1c-3,0 -5,-1 -7,-1c-4,0 -7.92578,-1.49756 -13,-2c-4.97568,-0.49269 -7,0 -11,0l-1,0l-1,0l-2,0" id="svg_15" stroke="#000" fill="none"/>
 </g>
</svg>